solid 
   facet normal 5.000000e-01 -8.660254e-01 -1.431287e-20
      outer loop
         vertex -2.314164e-15 -5.196152e+00 9.000000e+01
         vertex -2.316574e-15 -5.196152e+00 5.816742e+00
         vertex 4.500000e+00 -2.598076e+00 7.316742e+00
      endloop
   endfacet
   facet normal 5.000000e-01 -8.660254e-01 0.000000e+00
      outer loop
         vertex 4.500000e+00 -2.598076e+00 7.316742e+00
         vertex 4.500000e+00 -2.598076e+00 9.000000e+01
         vertex -2.314164e-15 -5.196152e+00 9.000000e+01
      endloop
   endfacet
   facet normal 1.000000e+00 0.000000e+00 0.000000e+00
      outer loop
         vertex 4.500000e+00 -2.598076e+00 9.000000e+01
         vertex 4.500000e+00 -2.598076e+00 7.316742e+00
         vertex 4.500000e+00 2.598076e+00 1.031674e+01
      endloop
   endfacet
   facet normal 1.000000e+00 0.000000e+00 0.000000e+00
      outer loop
         vertex 4.500000e+00 2.598076e+00 1.031674e+01
         vertex 4.500000e+00 2.598076e+00 9.000000e+01
         vertex 4.500000e+00 -2.598076e+00 9.000000e+01
      endloop
   endfacet
   facet normal 5.000000e-01 8.660254e-01 -0.000000e+00
      outer loop
         vertex 4.500000e+00 2.598076e+00 9.000000e+01
         vertex 4.500000e+00 2.598076e+00 1.031674e+01
         vertex 3.426797e-15 5.196152e+00 1.181674e+01
      endloop
   endfacet
   facet normal 5.000000e-01 8.660254e-01 0.000000e+00
      outer loop
         vertex 3.426797e-15 5.196152e+00 1.181674e+01
         vertex 3.426797e-15 5.196152e+00 9.000000e+01
         vertex 4.500000e+00 2.598076e+00 9.000000e+01
      endloop
   endfacet
   facet normal -5.000000e-01 8.660254e-01 0.000000e+00
      outer loop
         vertex 3.426797e-15 5.196152e+00 9.000000e+01
         vertex 3.426797e-15 5.196152e+00 1.181674e+01
         vertex -4.500000e+00 2.598076e+00 9.000000e+01
      endloop
   endfacet
   facet normal -5.000000e-01 8.660254e-01 0.000000e+00
      outer loop
         vertex 3.426797e-15 5.196152e+00 1.181674e+01
         vertex -4.500000e+00 2.598076e+00 1.031674e+01
         vertex -4.500000e+00 2.598076e+00 9.000000e+01
      endloop
   endfacet
   facet normal -1.000000e+00 0.000000e+00 0.000000e+00
      outer loop
         vertex -4.500000e+00 2.598076e+00 9.000000e+01
         vertex -4.500000e+00 2.598076e+00 1.031674e+01
         vertex -4.500000e+00 -2.598076e+00 9.000000e+01
      endloop
   endfacet
   facet normal -1.000000e+00 0.000000e+00 0.000000e+00
      outer loop
         vertex -4.500000e+00 2.598076e+00 1.031674e+01
         vertex -4.500000e+00 -2.598076e+00 7.316742e+00
         vertex -4.500000e+00 -2.598076e+00 9.000000e+01
      endloop
   endfacet
   facet normal -5.000000e-01 -8.660254e-01 0.000000e+00
      outer loop
         vertex -4.500000e+00 -2.598076e+00 9.000000e+01
         vertex -4.500000e+00 -2.598076e+00 7.316742e+00
         vertex -2.314164e-15 -5.196152e+00 9.000000e+01
      endloop
   endfacet
   facet normal -5.000000e-01 -8.660254e-01 1.431287e-20
      outer loop
         vertex -4.500000e+00 -2.598076e+00 7.316742e+00
         vertex -2.316574e-15 -5.196152e+00 5.816742e+00
         vertex -2.314164e-15 -5.196152e+00 9.000000e+01
      endloop
   endfacet
   facet normal 0.000000e+00 5.000000e-01 -8.660254e-01
      outer loop
         vertex -4.500000e+00 -2.598076e+00 7.316742e+00
         vertex 4.500000e+00 -2.598076e+00 7.316742e+00
         vertex -2.316574e-15 -5.196152e+00 5.816742e+00
      endloop
   endfacet
   facet normal 0.000000e+00 5.000000e-01 -8.660254e-01
      outer loop
         vertex -4.500000e+00 2.598076e+00 1.031674e+01
         vertex 4.500000e+00 2.598076e+00 1.031674e+01
         vertex 4.500000e+00 -2.598076e+00 7.316742e+00
      endloop
   endfacet
   facet normal 0.000000e+00 5.000000e-01 -8.660254e-01
      outer loop
         vertex -4.500000e+00 2.598076e+00 1.031674e+01
         vertex 3.426797e-15 5.196152e+00 1.181674e+01
         vertex 4.500000e+00 2.598076e+00 1.031674e+01
      endloop
   endfacet
   facet normal 0.000000e+00 5.000000e-01 -8.660254e-01
      outer loop
         vertex 4.500000e+00 -2.598076e+00 7.316742e+00
         vertex -4.500000e+00 -2.598076e+00 7.316742e+00
         vertex -4.500000e+00 2.598076e+00 1.031674e+01
      endloop
   endfacet
   facet normal 4.924039e-01 -8.528685e-01 1.736482e-01
      outer loop
         vertex 0.000000e+00 -1.124055e+00 1.100000e+02
         vertex -2.314164e-15 -5.196152e+00 9.000000e+01
         vertex 4.500000e+00 -2.598076e+00 9.000000e+01
      endloop
   endfacet
   facet normal 4.924039e-01 -8.528685e-01 1.736482e-01
      outer loop
         vertex 4.500000e+00 -2.598076e+00 9.000000e+01
         vertex 9.734604e-01 -5.620276e-01 1.100000e+02
         vertex 0.000000e+00 -1.124055e+00 1.100000e+02
      endloop
   endfacet
   facet normal 9.848078e-01 -0.000000e+00 1.736482e-01
      outer loop
         vertex 9.734604e-01 -5.620276e-01 1.100000e+02
         vertex 4.500000e+00 -2.598076e+00 9.000000e+01
         vertex 4.500000e+00 2.598076e+00 9.000000e+01
      endloop
   endfacet
   facet normal 9.848078e-01 0.000000e+00 1.736482e-01
      outer loop
         vertex 4.500000e+00 2.598076e+00 9.000000e+01
         vertex 9.734604e-01 5.620276e-01 1.100000e+02
         vertex 9.734604e-01 -5.620276e-01 1.100000e+02
      endloop
   endfacet
   facet normal 4.924039e-01 8.528685e-01 1.736482e-01
      outer loop
         vertex 9.734604e-01 5.620276e-01 1.100000e+02
         vertex 4.500000e+00 2.598076e+00 9.000000e+01
         vertex 3.426797e-15 5.196152e+00 9.000000e+01
      endloop
   endfacet
   facet normal 4.924039e-01 8.528685e-01 1.736482e-01
      outer loop
         vertex 3.426797e-15 5.196152e+00 9.000000e+01
         vertex 2.220446e-16 1.124055e+00 1.100000e+02
         vertex 9.734604e-01 5.620276e-01 1.100000e+02
      endloop
   endfacet
   facet normal -4.924039e-01 8.528685e-01 1.736482e-01
      outer loop
         vertex 2.220446e-16 1.124055e+00 1.100000e+02
         vertex 3.426797e-15 5.196152e+00 9.000000e+01
         vertex -4.500000e+00 2.598076e+00 9.000000e+01
      endloop
   endfacet
   facet normal -4.924039e-01 8.528685e-01 1.736482e-01
      outer loop
         vertex -4.500000e+00 2.598076e+00 9.000000e+01
         vertex -9.734604e-01 5.620276e-01 1.100000e+02
         vertex 2.220446e-16 1.124055e+00 1.100000e+02
      endloop
   endfacet
   facet normal -9.848078e-01 0.000000e+00 1.736482e-01
      outer loop
         vertex -9.734604e-01 5.620276e-01 1.100000e+02
         vertex -4.500000e+00 2.598076e+00 9.000000e+01
         vertex -4.500000e+00 -2.598076e+00 9.000000e+01
      endloop
   endfacet
   facet normal -9.848078e-01 0.000000e+00 1.736482e-01
      outer loop
         vertex -4.500000e+00 -2.598076e+00 9.000000e+01
         vertex -9.734604e-01 -5.620276e-01 1.100000e+02
         vertex -9.734604e-01 5.620276e-01 1.100000e+02
      endloop
   endfacet
   facet normal -4.924039e-01 -8.528685e-01 1.736482e-01
      outer loop
         vertex -9.734604e-01 -5.620276e-01 1.100000e+02
         vertex -4.500000e+00 -2.598076e+00 9.000000e+01
         vertex -2.314164e-15 -5.196152e+00 9.000000e+01
      endloop
   endfacet
   facet normal -4.924039e-01 -8.528685e-01 1.736482e-01
      outer loop
         vertex -2.314164e-15 -5.196152e+00 9.000000e+01
         vertex 0.000000e+00 -1.124055e+00 1.100000e+02
         vertex -9.734604e-01 -5.620276e-01 1.100000e+02
      endloop
   endfacet
   facet normal 0.000000e+00 -0.000000e+00 1.000000e+00
      outer loop
         vertex -9.734604e-01 -5.620276e-01 1.100000e+02
         vertex 0.000000e+00 -1.124055e+00 1.100000e+02
         vertex 9.734604e-01 -5.620276e-01 1.100000e+02
      endloop
   endfacet
   facet normal 0.000000e+00 0.000000e+00 1.000000e+00
      outer loop
         vertex 9.734604e-01 -5.620276e-01 1.100000e+02
         vertex 9.734604e-01 5.620276e-01 1.100000e+02
         vertex -9.734604e-01 -5.620276e-01 1.100000e+02
      endloop
   endfacet
   facet normal 0.000000e+00 0.000000e+00 1.000000e+00
      outer loop
         vertex 9.734604e-01 5.620276e-01 1.100000e+02
         vertex 2.220446e-16 1.124055e+00 1.100000e+02
         vertex -9.734604e-01 -5.620276e-01 1.100000e+02
      endloop
   endfacet
   facet normal -0.000000e+00 0.000000e+00 1.000000e+00
      outer loop
         vertex 2.220446e-16 1.124055e+00 1.100000e+02
         vertex -9.734604e-01 5.620276e-01 1.100000e+02
         vertex -9.734604e-01 -5.620276e-01 1.100000e+02
      endloop
   endfacet
endsolid
